# xmcd
#
# Track frame offsets:
#	150
#	46575
#	66050
#	86017
#	113342
#	132872
#	156752
#	176187
#	201665
#	244845
#
# Disc length: 3577 seconds
#
# Revision: 12
# Processed by: cddbd v1.5.2PL0 Copyright (c) Steve Scherf et al.
# Submitted via: Jack! The Knife 20 Magnifico
#
DISCID=830df70a
DTITLE=Stratovarius - Destiny
DYEAR=1998
DGENRE=Metal
TTITLE0=Destiny
TTITLE1=S.O.S.
TTITLE2=No Turning Back
TTITLE3=4000 Rainy Nights
TTITLE4=Rebel
TTITLE5=Years Go By
TTITLE6=Playing With Fire
TTITLE7=Venus In The Morning
TTITLE8=Anthem Of The World
TTITLE9=Cold Winter Nights
EXTD=Timo Tolkki
EXTT0=Timo Tolkki
EXTT1=Timo Tolkki
EXTT2=Timo Tolkki
EXTT3=Timo Tolkki
EXTT4=Timo Tolkki
EXTT5=Timo Tolkki
EXTT6=Timo Tolkki
EXTT7=Timo Tolkki
EXTT8=Timo Tolkki
EXTT9=Timo Tolkki
PLAYORDER=
